<svg width="151" height="85" viewBox="0 0 151 85" fill="none" xmlns="http://www.w3.org/2000/svg">
<g filter="url(#filter0_d_859_2444)">
<path d="M77.6556 51.2955C90.3093 40.6529 79.8368 30.3952 79.8368 30.3952L83.9163 14.6743C90.8414 20.4448 93.4163 30.6046 89.5921 39.4556C87.1521 45.1028 82.8945 49.5807 77.6556 51.2955Z" fill="url(#paint0_linear_859_2444)"/>
<path d="M78.7075 50.9115C93.341 38.6038 82.4474 27.0729 82.4474 27.0729L87.1652 8.89233C95.1738 15.5657 98.1515 27.3151 93.729 37.5509C90.9073 44.0816 85.6498 48.6633 79.5912 50.6464L78.7075 50.9115Z" fill="#ACD4AC"/>
<path d="M81.8153 49.7991C97.4212 36.6736 84.8727 24.3886 84.8727 24.3886L89.904 5C98.4447 12.1168 101.62 24.6469 96.9039 35.5629C93.8948 42.5276 88.2845 47.6839 81.8234 49.7988L81.8153 49.7991Z" fill="url(#paint1_linear_859_2444)"/>
<path d="M72.7636 16.6187C60.1099 27.2612 70.5823 37.519 70.5823 37.519L66.5028 53.2398C59.5777 47.4694 57.0029 37.3096 60.8271 28.4586C63.267 22.8114 67.5247 18.3334 72.7636 16.6187Z" fill="url(#paint2_linear_859_2444)"/>
<path d="M71.7117 17.0027C57.0782 29.3104 67.9719 40.8413 67.9719 40.8413L63.2541 59.0218C55.2455 52.3485 52.2678 40.5991 56.6903 30.3633C59.512 23.8325 64.7695 19.2509 70.828 17.2678L71.7117 17.0027Z" fill="url(#paint3_linear_859_2444)"/>
<path d="M68.6039 18.115C52.998 31.2405 65.5465 43.5255 65.5465 43.5255L60.5152 62.9141C51.9745 55.7973 48.7989 43.2672 53.5153 32.3512C56.5245 25.3865 62.1347 20.2302 68.5959 18.1153L68.6039 18.115Z" fill="url(#paint4_linear_859_2444)"/>
<path d="M80.5698 17.9144C79.9796 17.9658 79.3971 18.0621 78.8273 18.1982L80.6572 10.3079L78.4046 10.5848L76.7602 18.8917C76.2642 19.1086 75.7855 19.3571 75.3279 19.6339L77.0295 12.2969L74.7768 12.5738L73.0176 21.461C70.1565 24.3983 69.1284 28.7496 72.0569 33.0198C72.8129 34.1542 73.6268 35.1537 74.4336 36.2376C75.4966 37.651 76.5819 38.9708 76.5561 40.7987C76.4097 44.9711 72.9654 47.7248 69.8514 49.9463C70.4341 49.8969 71.0176 49.7999 71.5944 49.6603L69.764 57.5529L72.0167 57.2759L73.6628 48.9601C74.1556 48.7435 74.6352 48.4953 75.0956 48.2172L73.3918 55.5639L75.6444 55.2869L77.4039 46.3985C79.5651 44.1912 80.724 41.1263 79.7483 37.6651C79.2331 36.0653 78.4297 34.9141 77.5371 33.6931C77.2588 33.3217 76.6463 32.4365 76.347 32.1075C76.2484 31.9882 76.0541 31.7416 75.9624 31.6173C74.8993 30.2025 73.8152 28.8814 73.8445 27.0512C73.9978 22.8776 77.4488 20.1265 80.5698 17.9144Z" fill="white"/>
</g>
<g filter="url(#filter1_d_859_2444)">
<path d="M45.3583 75.2731H50.5049C52.2887 75.2731 53.3261 74.404 53.7107 72.4621C53.9637 71.2095 53.7487 70.378 53.0731 69.9703C53.5058 69.5868 53.7967 69.0745 53.9157 68.4361C54.1813 67.146 53.5437 66.3279 52.3494 66.3279H47.1422L45.3583 75.2731ZM50.8541 73.484H47.757L48.1669 71.4402H51.264C51.6865 71.4402 51.808 71.746 51.6612 72.4621C51.5296 73.138 51.2766 73.484 50.8541 73.484ZM51.2285 69.6511H48.5288L48.8425 68.1169H51.5423C51.7827 68.1169 51.8662 68.4361 51.7827 68.884C51.6865 69.3427 51.4563 69.6511 51.2285 69.6511ZM59.8592 75.4018C62.559 75.4018 64.1632 74.058 64.7528 71.1076L65.694 66.3279H63.6445L62.6071 71.5046C62.3313 72.9208 61.5596 73.6128 60.2084 73.6128C58.8826 73.6128 58.3537 72.9476 58.6422 71.5046L59.6669 66.3279H57.6174L56.6661 71.1076C56.0866 73.9695 57.076 75.4018 59.8592 75.4018ZM70.251 73.484H68.9732L70.0587 68.1169H71.3365C72.5409 68.1169 73.181 68.4361 73.3733 69.2032C73.4695 69.6002 73.4467 70.1232 73.3126 70.7884C73.0596 72.0786 72.6016 72.8457 71.7945 73.2024C71.3972 73.3955 70.8785 73.484 70.251 73.484ZM66.5745 75.2731H70.2637C72.2524 75.2731 73.553 74.7098 74.3981 73.4063C74.8207 72.7545 75.1445 71.8854 75.3621 70.7884C75.7973 68.6534 75.5317 67.4008 74.4335 66.7865C73.8794 66.4808 73.0849 66.3279 72.0475 66.3279H68.3584L66.5745 75.2731ZM77.485 73.484L77.1333 75.2731H84.0055L84.3547 73.484H79.7749L85.4401 68.1169L85.7893 66.3279H78.9197L78.568 68.1169H83.1503L77.485 73.484ZM86.6699 75.2731H93.542L93.8912 73.484H89.0685L89.4304 71.695H93.0461L93.4079 69.906H89.7922L90.154 68.1169H94.9767L95.3259 66.3279H88.4537L86.6699 75.2731ZM98.8581 75.2731H100.908L102.342 68.1169H104.994L105.343 66.3279H97.9902L97.6385 68.1169H100.293L98.8581 75.2731Z" fill="#4C945C"/>
</g>
<path d="M3.06414 84.9438L5.52303 81.5681V84.8636H6.60631V80.088H6.3587L3.63158 83.832L1.3584 80.088H0L0.471142 80.8317V84.8636H0.663726V81.1379L3.06414 84.9438ZM14.5229 84.8636H15.7334L13.3399 80.088H12.1293L12.432 80.6859L10.3376 84.8636H10.5508L11.0873 83.7992V83.8064H13.9967L14.5229 84.8636ZM11.1836 83.6023L12.542 80.8973L13.8935 83.6023H11.1836ZM19.5335 84.8636H20.6133V82.8622L20.916 82.6253L22.9587 84.8636H24.3859L22.2365 82.5159H21.0535L24.0902 80.088H23.7738L20.6133 82.6034V80.088H19.5335V84.8636ZM28.0897 84.8636H29.1696V80.088H28.0897V84.8636ZM37.7327 84.9438V80.088H37.5401V83.1357L34.6685 80.088H33.1622L33.6334 80.5838V84.8636H33.826V80.7879L37.7327 84.9438ZM46.5606 84.6449V82.7748H43.7715V82.9789H45.4773V83.821C45.2641 83.9705 45.0027 84.0507 44.7173 84.0507C43.3795 84.0507 42.1552 83.1575 42.1552 81.6702C42.1552 81.014 42.8396 80.7551 43.4379 80.7551C44.4146 80.7551 45.3569 81.1306 45.969 81.5827L46.5606 80.6202C46.0757 80.2557 45.4979 80.0042 44.4043 80.0042C42.9221 80.0042 41.66 81.1015 41.66 82.4758C41.66 83.8465 42.6263 84.9438 43.8059 84.9438C44.5694 84.9438 45.1127 84.6376 45.4773 84.0726V84.8636L46.5606 84.6449ZM58.2497 84.9438L60.712 81.5681V84.8636H61.7919V80.088H61.5477L58.8171 83.832L56.544 80.088H55.1856L55.6567 80.8317V84.8636H55.8493V81.1379L58.2497 84.9438ZM65.7845 82.4758C65.7845 83.8393 66.9744 84.9438 68.436 84.9438C69.8976 84.9438 71.084 83.8393 71.084 82.4758C71.084 81.1087 69.8976 80.0042 68.436 80.0042C66.9744 80.0042 65.7845 81.1087 65.7845 82.4758ZM67.2392 80.7806C68.8109 80.7806 70.5338 81.8524 70.5338 83.369C70.5338 83.9158 70.097 84.1673 69.6259 84.1673C68.0577 84.1673 66.3313 83.0956 66.3313 81.5827C66.3313 81.0358 66.7681 80.7806 67.2392 80.7806ZM79.3858 84.9438V80.088H79.1932V83.1357L76.3216 80.088H74.8153L75.2865 80.5838V84.8636H75.4791V80.7879L79.3858 84.9438ZM83.571 84.8636H88.0417V84.6595H84.6543V82.3191H87.5327V82.1149H84.6543V80.2921H87.9764V80.088H83.571V84.8636ZM93.0042 80.088H91.5804L93.692 82.782V84.8636H94.7753V82.618L96.6529 80.088H96.4432L94.7546 82.3592L93.0042 80.088ZM107.984 83.996C106.454 83.996 105.821 83.7117 105.14 83.1721L104.552 84.1528C105.006 84.5829 105.711 84.9438 106.929 84.9438C108.218 84.9438 109.343 84.2913 109.343 83.431C109.343 82.1149 105.089 82.4758 105.089 81.3566C105.089 81.014 105.532 80.8864 105.976 80.8864C107.083 80.8864 107.733 81.0686 108.686 81.5827L109.281 80.6202C108.782 80.2557 108.036 80.0042 106.942 80.0042C105.557 80.0042 104.862 80.6749 104.862 81.3676C104.862 82.7347 109.171 82.2753 109.171 83.4565C109.171 83.8465 108.597 83.996 107.984 83.996ZM113.336 84.8636H114.415V80.088H113.336V84.8636ZM121.472 84.9438L123.931 81.5681V84.8636H125.014V80.088H124.77L122.04 83.832L119.766 80.088H118.408L118.879 80.8317V84.8636H119.072V81.1379L121.472 84.9438ZM129.261 84.8636H130.345V82.556C130.572 82.9388 131.15 83.2523 132.109 83.2523C133.34 83.2523 134.303 82.5378 134.303 81.6957C134.303 80.6749 133.144 80.0042 131.091 80.0042C130.376 80.0042 129.805 80.0333 129.261 80.088V84.8636ZM130.345 80.2229C130.551 80.2156 130.775 80.2083 131.022 80.2083C132.508 80.2083 133.261 81.24 133.261 81.9691C133.261 82.6946 132.79 83.0482 132.109 83.0482C130.971 83.0482 130.345 82.5232 130.345 82.0857V80.2229ZM138.296 84.8636H142.288V84.6595H139.379V80.088H138.296V84.8636ZM146.085 84.8636H150.552V84.6595H147.168V82.3191H150.047V82.1149H147.168V80.2921H150.49V80.088H146.085V84.8636Z" fill="black"/>
<defs>
<filter id="filter0_d_859_2444" x="46.5286" y="0.2" width="57.3621" height="67.5141" filterUnits="userSpaceOnUse" color-interpolation-filters="sRGB">
<feFlood flood-opacity="0" result="BackgroundImageFix"/>
<feColorMatrix in="SourceAlpha" type="matrix" values="0 0 0 0 0 0 0 0 0 0 0 0 0 0 0 0 0 0 127 0" result="hardAlpha"/>
<feOffset/>
<feGaussianBlur stdDeviation="2.4"/>
<feComposite in2="hardAlpha" operator="out"/>
<feColorMatrix type="matrix" values="0 0 0 0 0 0 0 0 0 0 0 0 0 0 0 0 0 0 0.25 0"/>
<feBlend mode="normal" in2="BackgroundImageFix" result="effect1_dropShadow_859_2444"/>
<feBlend mode="normal" in="SourceGraphic" in2="effect1_dropShadow_859_2444" result="shape"/>
</filter>
<filter id="filter1_d_859_2444" x="40.5583" y="61.5279" width="69.5848" height="18.674" filterUnits="userSpaceOnUse" color-interpolation-filters="sRGB">
<feFlood flood-opacity="0" result="BackgroundImageFix"/>
<feColorMatrix in="SourceAlpha" type="matrix" values="0 0 0 0 0 0 0 0 0 0 0 0 0 0 0 0 0 0 127 0" result="hardAlpha"/>
<feOffset/>
<feGaussianBlur stdDeviation="2.4"/>
<feComposite in2="hardAlpha" operator="out"/>
<feColorMatrix type="matrix" values="0 0 0 0 0 0 0 0 0 0 0 0 0 0 0 0 0 0 0.25 0"/>
<feBlend mode="normal" in2="BackgroundImageFix" result="effect1_dropShadow_859_2444"/>
<feBlend mode="normal" in="SourceGraphic" in2="effect1_dropShadow_859_2444" result="shape"/>
</filter>
<linearGradient id="paint0_linear_859_2444" x1="83.9697" y1="30.7753" x2="82.6363" y2="57.6507" gradientUnits="userSpaceOnUse">
<stop stop-color="#36884C"/>
<stop offset="1" stop-color="#D5E9CC"/>
</linearGradient>
<linearGradient id="paint1_linear_859_2444" x1="95.563" y1="9.75768" x2="70.1458" y2="39.9871" gradientUnits="userSpaceOnUse">
<stop stop-color="#D5E9CC"/>
<stop offset="1" stop-color="#36884C"/>
</linearGradient>
<linearGradient id="paint2_linear_859_2444" x1="66.4494" y1="37.1388" x2="67.7829" y2="10.2635" gradientUnits="userSpaceOnUse">
<stop stop-color="#36884C"/>
<stop offset="1" stop-color="#D5E9CC"/>
</linearGradient>
<linearGradient id="paint3_linear_859_2444" x1="63.294" y1="52.0854" x2="69.8238" y2="19.1465" gradientUnits="userSpaceOnUse">
<stop stop-color="#36884C"/>
<stop offset="1" stop-color="#D5E9CC"/>
</linearGradient>
<linearGradient id="paint4_linear_859_2444" x1="54.8563" y1="58.1564" x2="80.2735" y2="27.9269" gradientUnits="userSpaceOnUse">
<stop stop-color="#D5E9CC"/>
<stop offset="1" stop-color="#36884C"/>
</linearGradient>
</defs>
</svg>
